<?xml version="1.0" encoding="iso-8859-1"?>
<!-- Generator: Adobe Illustrator 19.0.0, SVG Export Plug-In . SVG Version: 6.00 Build 0)  -->
<svg version="1.1" id="Layer_1" xmlns="http://www.w3.org/2000/svg" xmlns:xlink="http://www.w3.org/1999/xlink" x="0px" y="0px"
	 viewBox="0 0 512 512" style="enable-background:new 0 0 512 512;" xml:space="preserve">
<g>
	<g>
		<path d="M473.266,120.542c-24.643-39.446-59.525-71.47-100.878-92.613c-4.918-2.514-10.951-0.567-13.466,4.355
			c-2.516,4.921-0.567,10.949,4.355,13.466c38.125,19.493,70.29,49.024,93.014,85.397c23.352,37.379,35.694,80.552,35.694,124.853
			c0,130.124-105.862,235.985-235.984,235.985S20.015,386.122,20.015,255.999S125.878,20.015,256.001,20.015
			c5.528,0,10.007-4.479,10.007-10.007C266.008,4.479,261.529,0,256.001,0c-141.16,0-256,114.84-256,255.999
			c0,141.16,114.84,256.001,256,256.001c141.158,0,255.999-114.84,255.999-256C512.001,207.945,498.607,161.104,473.266,120.542z"/>
	</g>
</g>
<g>
	<g>
		<path d="M213.164,139.825c-22.072,0-40.029,17.957-40.029,40.029c0,22.072,17.957,40.029,40.029,40.029
			s40.029-17.957,40.029-40.029C253.193,157.783,235.236,139.825,213.164,139.825z M213.164,199.869
			c-11.036,0-20.015-8.979-20.015-20.015c0-11.036,8.977-20.015,20.015-20.015c11.036,0,20.015,8.979,20.015,20.015
			C233.179,190.891,224.2,199.869,213.164,199.869z"/>
	</g>
</g>
<g>
	<g>
		<path d="M382.187,139.825c-22.072,0-40.029,17.957-40.029,40.029c0,22.072,17.957,40.029,40.029,40.029
			s40.029-17.957,40.029-40.029C422.216,157.783,404.259,139.825,382.187,139.825z M382.187,199.869
			c-11.036,0-20.015-8.979-20.015-20.015c0-11.036,8.977-20.015,20.015-20.015c11.036,0,20.015,8.979,20.015,20.015
			C402.201,190.891,393.223,199.869,382.187,199.869z"/>
	</g>
</g>
<g>
	<g>
		<path d="M459.896,360.506c-0.482-2.61-1.98-4.921-4.166-6.426l-41.944-28.884c-14.108-9.714-33.323-6.539-43.603,6.925h-7.253
			v-12.453c0-5.528-4.479-10.007-10.007-10.007c-5.528,0-10.007,4.479-10.007,10.007v12.453h-20.459v-12.453
			c0-5.528-4.479-10.007-10.007-10.007s-10.007,4.479-10.007,10.007v12.453h-17.569v-12.453c0-5.528-4.479-10.007-10.007-10.007
			c-5.528,0-10.007,4.479-10.007,10.007v12.453h-20.015v-12.453c0-5.528-4.479-10.007-10.007-10.007s-10.007,4.479-10.007,10.007
			v12.453h-18.013v-12.453c0-5.528-4.479-10.007-10.007-10.007s-10.007,4.479-10.007,10.007v12.453h-6.768
			c-5.528,0-10.007,4.479-10.007,10.007c0,5.528,4.479,10.007,10.007,10.007h25.239v16.235c0,5.528,4.479,10.007,10.007,10.007
			c5.528,0,10.007-4.479,10.007-10.007v-16.235h19.39v16.235c0,5.528,4.479,10.007,10.007,10.007s10.007-4.479,10.007-10.007
			v-16.235h19.292v16.235c0,5.528,4.479,10.007,10.007,10.007c5.528,0,10.007-4.479,10.007-10.007v-16.235h18.236v16.235
			c0,5.528,4.479,10.007,10.007,10.007s10.007-4.479,10.007-10.007v-16.235h21.377c0.19,9.978,5.008,19.73,13.836,25.81
			l41.943,28.883c1.735,1.194,3.709,1.767,5.667,1.767c3.182,0,6.31-1.514,8.251-4.333l24.974-36.265
			C459.801,365.81,460.377,363.117,459.896,360.506z M422.514,384.669l-33.701-23.208c-5.455-3.756-6.837-11.248-3.081-16.702
			c2.327-3.378,6.087-5.195,9.909-5.195c2.347,0,4.718,0.686,6.793,2.114l33.702,23.209L422.514,384.669z"/>
	</g>
</g>
<g>
	<g>
		<circle cx="330.337" cy="23.412" r="10.007"/>
	</g>
</g>
<g>
</g>
<g>
</g>
<g>
</g>
<g>
</g>
<g>
</g>
<g>
</g>
<g>
</g>
<g>
</g>
<g>
</g>
<g>
</g>
<g>
</g>
<g>
</g>
<g>
</g>
<g>
</g>
<g>
</g>
</svg>
