<?xml version="1.0" encoding="iso-8859-1"?>
<!-- Generator: Adobe Illustrator 18.0.0, SVG Export Plug-In . SVG Version: 6.00 Build 0)  -->
<!DOCTYPE svg PUBLIC "-//W3C//DTD SVG 1.1//EN" "http://www.w3.org/Graphics/SVG/1.1/DTD/svg11.dtd">
<svg version="1.1" id="Capa_1" xmlns="http://www.w3.org/2000/svg" xmlns:xlink="http://www.w3.org/1999/xlink" x="0px" y="0px"
	 viewBox="0 0 297 297" style="enable-background:new 0 0 297 297;" xml:space="preserve">
<g>
	<path d="M297,198.78c0-17.804-14.439-32.289-32.185-32.289c-16.956,0-30.893,13.22-32.104,29.923h-14.344
		c20.17-19.131,31.541-45.402,31.541-73.698c0-56.062-45.492-101.671-101.409-101.671S47.091,66.654,47.091,122.716
		c0,28.296,11.373,54.569,31.544,73.7H64.294c-1.211-16.704-15.147-29.925-32.104-29.925C14.44,166.491,0,180.976,0,198.778
		c0,8.71,3.46,16.63,9.075,22.444C3.46,227.038,0,234.956,0,243.666c0,17.804,14.44,32.289,32.19,32.289
		c16.957,0,30.895-13.221,32.105-29.924h19.422v5.242c0,5.437,4.407,9.845,9.844,9.845h109.877c5.436,0,9.844-4.408,9.844-9.845
		v-5.242h19.43c1.209,16.704,15.146,29.924,32.104,29.924c17.746,0,32.185-14.484,32.185-32.287c0-8.711-3.459-16.629-9.073-22.444
		C293.541,215.409,297,207.49,297,198.78z M53.259,226.343c-3.195,0-6.191,1.551-8.036,4.16c-1.846,2.608-2.31,5.951-1.245,8.964
		c0.475,1.345,0.716,2.757,0.716,4.199c0,6.948-5.608,12.601-12.503,12.601c-6.894,0-12.503-5.652-12.503-12.601
		c0-6.939,5.604-12.592,12.493-12.599c5.434-0.005,9.835-4.411,9.835-9.844c0-5.433-4.401-9.838-9.835-9.844
		c-6.889-0.007-12.493-5.66-12.493-12.602c0-6.948,5.608-12.6,12.503-12.6c6.893,0,12.501,5.652,12.501,12.602
		c0,1.445-0.24,2.858-0.714,4.2c-1.064,3.014-0.601,6.355,1.245,8.964c1.845,2.609,4.841,4.159,8.036,4.159h30.459v10.239H53.259z
		 M197.515,188.318c-2.469,1.86-3.92,4.772-3.92,7.863v45.248h-18.22V209.24c0-5.437-4.408-9.844-9.845-9.844
		c-5.436,0-9.844,4.407-9.844,9.844v32.189h-14.375V209.24c0-5.437-4.408-9.844-9.844-9.844c-5.437,0-9.845,4.407-9.845,9.844
		v32.189h-18.218v-45.248c0-3.091-1.451-6.003-3.92-7.861c-20.785-15.661-32.706-39.573-32.706-65.604
		c0-45.205,36.659-81.982,81.721-81.982c45.061,0,81.721,36.777,81.721,81.982C230.221,148.748,218.3,172.66,197.515,188.318z
		 M264.824,231.066c6.886,0.007,12.488,5.66,12.488,12.602c0,6.947-5.606,12.599-12.497,12.599c-6.893,0-12.502-5.651-12.502-12.605
		c0-1.441,0.239-2.852,0.713-4.19c1.067-3.013,0.604-6.356-1.241-8.966c-1.845-2.61-4.842-4.162-8.038-4.162h-30.465v-10.241h30.463
		c3.195,0,6.191-1.55,8.036-4.159c1.846-2.609,2.31-5.95,1.245-8.964c-0.473-1.338-0.713-2.751-0.713-4.2
		c0-6.948,5.608-12.6,12.502-12.6c6.891,0,12.497,5.652,12.497,12.602c0,6.94-5.603,12.592-12.488,12.599
		c-5.433,0.005-9.834,4.41-9.834,9.844C254.99,226.655,259.392,231.061,264.824,231.066z"/>
	<path d="M134.858,120.244c-5.466-5.51-14.081-8.67-23.638-8.67s-18.172,3.16-23.639,8.67
		c-11.397,11.489-11.397,30.186,0.001,41.675c5.546,5.591,12.926,8.669,20.781,8.669c7.854,0,15.234-3.079,20.78-8.669
		C140.836,150.133,146.554,132.032,134.858,120.244z M115.167,148.053c-1.821,1.836-4.237,2.848-6.803,2.848
		c-2.567,0-4.983-1.012-6.805-2.848c-3.813-3.844-3.813-10.099-0.001-13.942c1.406-1.417,4.939-2.848,9.662-2.848
		c4.722,0,8.255,1.43,9.661,2.848C122.968,136.213,120.191,142.988,115.167,148.053z"/>
	<path d="M209.417,120.244c-5.466-5.51-14.082-8.67-23.638-8.67c-9.557,0-18.172,3.16-23.638,8.669
		c-11.697,11.789-5.98,29.89,5.714,41.676c5.546,5.59,12.926,8.669,20.78,8.669c7.855,0,15.235-3.079,20.78-8.669
		C220.815,150.43,220.815,131.733,209.417,120.244z M195.439,148.053c-1.822,1.836-4.237,2.848-6.804,2.848
		c-2.565,0-4.981-1.012-6.804-2.848c-5.024-5.064-7.802-11.84-5.714-13.942c1.406-1.418,4.938-2.848,9.661-2.848
		c4.722,0,8.255,1.43,9.661,2.848C199.254,137.954,199.254,144.209,195.439,148.053z"/>
	<path d="M148.501,170.08c0,0-14.568,9.192-14.568,16.546c0,4.063,3.262,7.356,7.281,7.356c4.028,0,7.287-3.294,7.287-7.356
		c0,4.063,3.257,7.356,7.283,7.356c4.02,0,7.283-3.294,7.283-7.356C163.067,179.273,148.501,170.08,148.501,170.08z"/>
</g>
<g>
</g>
<g>
</g>
<g>
</g>
<g>
</g>
<g>
</g>
<g>
</g>
<g>
</g>
<g>
</g>
<g>
</g>
<g>
</g>
<g>
</g>
<g>
</g>
<g>
</g>
<g>
</g>
<g>
</g>
</svg>
